<mxGraphModel dx="1116" dy="579" grid="1" gridSize="8" guides="1" tooltips="1" connect="1" arrows="1" fold="1" page="1" pageScale="1" pageWidth="1169" pageHeight="827" background="#ffffff"><root><MiscDiagram modelType="MiscDiagram" lastModifiedUserId="dbush@ibm.com" description="" lastModified="2021-10-06T20:42:42Z" _id="miscdiagram_31tWpe6jSX1" label="OCP HA" id="0"><mxCell/></MiscDiagram><mxCell id="1" parent="0"/><mxCell id="miscdiagram_31tWpe6jSX1_23dySDhhiNgU" value="OpenShift Cluster" style="fontStyle=0;verticalAlign=top;align=center;spacingTop=-2;rounded=0;whiteSpace=wrap;html=1;strokeColor=#b85450;strokeWidth=1;dashed=0;container=1;collapsible=0;expand=0;recursiveResize=0;fillColor=#f8cecc;" vertex="1" parent="1"><mxGeometry x="60" y="314" width="870" height="386" as="geometry"/></mxCell><mxCell id="miscdiagram_31tWpe6jSX1_33dySDhhaMlm" value="NAT Gateway" style="aspect=fixed;perimeter=ellipsePerimeter;html=1;align=center;shadow=0;dashed=0;fontColor=#4277BB;labelBackgroundColor=#ffffff;fontSize=12;spacingTop=3;image;image=data:image/svg+xml,PHN2ZyB4bWxucz0iaHR0cDovL3d3dy53My5vcmcvMjAwMC9zdmciIHdpZHRoPSIxMDAuMDMyIiBoZWlnaHQ9IjEwMC4wMzIiIHZpZXdCb3g9IjAgMCA3NSA3NSIgZmlsbD0ibm9uZSIgZmlsbC1ydWxlPSJldmVub2RkIiBvdmVyZmxvdz0idmlzaWJsZSIgc3Ryb2tlLWxpbmVjYXA9InNxdWFyZSIgc3Ryb2tlLW1pdGVybGltaXQ9IjMiIGNvbG9yLWludGVycG9sYXRpb24tZmlsdGVycz0ic1JHQiI+PGNpcmNsZSByPSIzNy41IiBjeD0iMzcuNSIgY3k9IjM3LjUiIGNvbG9yLWludGVycG9sYXRpb24tZmlsdGVycz0ic1JHQiIgZmlsbD0iIzhkYzUzZiIvPjxwYXRoIGQ9Ik0xMi44NiA2MHYtOS4yODNsNy43MDIgNC42NHptMC0zNS43MzdWMTVsNy43MDIgNC42NHptMCAxNy44NjhWMzIuODZsNy43MDIgNC42NHptMzEuNjQ1LTI0LjU5TDI0LjYgMTcuNThsLjAwNiAzLjc1IDE2LjE1LS4wMjMtLjAzIDE0LjQ5OC0xNi4xMjItLjAxNS0uMDAyIDMuNzUgMTYuMTE1LjAxNS0uMDMgMTMuOS0xNi4xMzguMDIyLjAwNiAzLjc1IDE5Ljg3NS0uMDI4LjAzNy0xNy42MyAxMS4zMzYuMDEuMDAyLTMuNzUtMTEuMzMtLjAxem0xNS41NiAyNS41NzZWMzEuNjg1bDEwLjAzIDUuNzIyeiIgZmlsbD0iI2ZmZiIvPjwvc3ZnPg==;" vertex="1" parent="miscdiagram_31tWpe6jSX1_23dySDhhiNgU"><mxGeometry x="840" y="36" width="60" height="60" as="geometry"/></mxCell><mxCell id="miscdiagram_31tWpe6jSX1_43dySDhhmnGe" value="BAW" style="aspect=fixed;perimeter=ellipsePerimeter;html=1;align=center;shadow=0;dashed=0;fontColor=#4277BB;labelBackgroundColor=none;fontSize=12;spacingTop=3;image;image=data:image/svg+xml,PHN2ZyB4bWxucz0iaHR0cDovL3d3dy53My5vcmcvMjAwMC9zdmciIHZpZXdCb3g9IjAgMCA1OS42IDU5LjYiPjxjaXJjbGUgY3g9IjI5LjgiIGN5PSIyOS44IiByPSIyOS44IiBmaWxsPSIjZWFiZTFkIi8+PHBhdGggZD0iTTM0LjggMTkuMWgtMi42YzAgMS44LS40IDMuNy0xLjEgNS40TDIzIDIwLjZjLjgtMi43LS43LTUuNi0zLjUtNi40YTUuMDYgNS4wNiAwIDAgMC00IC41bC0xLjktMS45LTEuOCAxLjggMS45IDEuOWMtMS40IDIuNC0uNiA1LjYgMS44IDcgMS4yLjcgMi43LjkgNCAuNWwxMS4xIDIyLjkgMS4yLS42LTYuMS0xMi41YTE2LjY5IDE2LjY5IDAgMCAwIDcuMi03LjJsMTIuNiA2LjEuNi0xLjItMTIuNS02LjFjLjgtMS45IDEuMi00LjEgMS4yLTYuM3ptLTE3LjYtLjljLjUtLjUgMS4zLS41IDEuOCAwcy41IDEuMyAwIDEuOC0xLjMuNS0xLjggMGMtLjQtLjUtLjQtMS4zIDAtMS44em03LjUgMTMuM2wtMy45LTguMWMuOC0uNCAxLjQtMS4xIDEuOC0xLjhsOC4xIDMuOWMtMS40IDIuNi0zLjUgNC43LTYgNnoiIGZpbGw9IiNmZmYiLz48L3N2Zz4=;fillColor=#ffffff;" vertex="1" parent="miscdiagram_31tWpe6jSX1_23dySDhhiNgU"><mxGeometry x="30" y="306" width="34" height="34" as="geometry"/></mxCell><mxCell id="miscdiagram_31tWpe6jSX1_53dySDhhZVMk" value="WfPS" style="aspect=fixed;perimeter=ellipsePerimeter;html=1;align=center;shadow=0;dashed=0;fontColor=#4277BB;labelBackgroundColor=none;fontSize=12;spacingTop=3;image;image=data:image/svg+xml,PHN2ZyB4bWxucz0iaHR0cDovL3d3dy53My5vcmcvMjAwMC9zdmciIHZpZXdCb3g9IjAgMCA1OS42IDU5LjYiPjxjaXJjbGUgY3g9IjI5LjgiIGN5PSIyOS44IiByPSIyOS44IiBmaWxsPSIjZWFiZTFkIi8+PHBhdGggZD0iTTM0LjggMTkuMWgtMi42YzAgMS44LS40IDMuNy0xLjEgNS40TDIzIDIwLjZjLjgtMi43LS43LTUuNi0zLjUtNi40YTUuMDYgNS4wNiAwIDAgMC00IC41bC0xLjktMS45LTEuOCAxLjggMS45IDEuOWMtMS40IDIuNC0uNiA1LjYgMS44IDcgMS4yLjcgMi43LjkgNCAuNWwxMS4xIDIyLjkgMS4yLS42LTYuMS0xMi41YTE2LjY5IDE2LjY5IDAgMCAwIDcuMi03LjJsMTIuNiA2LjEuNi0xLjItMTIuNS02LjFjLjgtMS45IDEuMi00LjEgMS4yLTYuM3ptLTE3LjYtLjljLjUtLjUgMS4zLS41IDEuOCAwcy41IDEuMyAwIDEuOC0xLjMuNS0xLjggMGMtLjQtLjUtLjQtMS4zIDAtMS44em03LjUgMTMuM2wtMy45LTguMWMuOC0uNCAxLjQtMS4xIDEuOC0xLjhsOC4xIDMuOWMtMS40IDIuNi0zLjUgNC43LTYgNnoiIGZpbGw9IiNmZmYiLz48L3N2Zz4=;fillColor=#ffffff;" vertex="1" parent="miscdiagram_31tWpe6jSX1_23dySDhhiNgU"><mxGeometry x="90" y="306" width="34" height="34" as="geometry"/></mxCell><mxCell id="miscdiagram_31tWpe6jSX1_63dySDhhl1om" value="ODM" style="aspect=fixed;perimeter=ellipsePerimeter;html=1;align=center;shadow=0;dashed=0;fontColor=#4277BB;labelBackgroundColor=#ffffff;fontSize=12;spacingTop=3;image;image=data:image/svg+xml,PHN2ZyB4bWxucz0iaHR0cDovL3d3dy53My5vcmcvMjAwMC9zdmciIHZpZXdCb3g9IjAgMCA1OS42IDU5LjYiPjxjaXJjbGUgY3g9IjI5LjgiIGN5PSIyOS44IiByPSIyOS44IiBmaWxsPSIjZWFiZTFkIi8+PHBhdGggZD0iTTM0LjggMTkuMWgtMi42YzAgMS44LS40IDMuNy0xLjEgNS40TDIzIDIwLjZjLjgtMi43LS43LTUuNi0zLjUtNi40YTUuMDYgNS4wNiAwIDAgMC00IC41bC0xLjktMS45LTEuOCAxLjggMS45IDEuOWMtMS40IDIuNC0uNiA1LjYgMS44IDcgMS4yLjcgMi43LjkgNCAuNWwxMS4xIDIyLjkgMS4yLS42LTYuMS0xMi41YTE2LjY5IDE2LjY5IDAgMCAwIDcuMi03LjJsMTIuNiA2LjEuNi0xLjItMTIuNS02LjFjLjgtMS45IDEuMi00LjEgMS4yLTYuM3ptLTE3LjYtLjljLjUtLjUgMS4zLS41IDEuOCAwcy41IDEuMyAwIDEuOC0xLjMuNS0xLjggMGMtLjQtLjUtLjQtMS4zIDAtMS44em03LjUgMTMuM2wtMy45LTguMWMuOC0uNCAxLjQtMS4xIDEuOC0xLjhsOC4xIDMuOWMtMS40IDIuNi0zLjUgNC43LTYgNnoiIGZpbGw9IiNmZmYiLz48L3N2Zz4=;fillColor=#ffffff;" vertex="1" parent="miscdiagram_31tWpe6jSX1_23dySDhhiNgU"><mxGeometry x="160" y="306" width="34" height="34" as="geometry"/></mxCell><mxCell id="miscdiagram_31tWpe6jSX1_73dySDhheNLv" value="ODM" style="aspect=fixed;perimeter=ellipsePerimeter;html=1;align=center;shadow=0;dashed=0;fontColor=#4277BB;labelBackgroundColor=#ffffff;fontSize=12;spacingTop=3;image;image=data:image/svg+xml,PHN2ZyB4bWxucz0iaHR0cDovL3d3dy53My5vcmcvMjAwMC9zdmciIHZpZXdCb3g9IjAgMCA1OS42IDU5LjYiPjxjaXJjbGUgY3g9IjI5LjgiIGN5PSIyOS44IiByPSIyOS44IiBmaWxsPSIjZWFiZTFkIi8+PHBhdGggZD0iTTM0LjggMTkuMWgtMi42YzAgMS44LS40IDMuNy0xLjEgNS40TDIzIDIwLjZjLjgtMi43LS43LTUuNi0zLjUtNi40YTUuMDYgNS4wNiAwIDAgMC00IC41bC0xLjktMS45LTEuOCAxLjggMS45IDEuOWMtMS40IDIuNC0uNiA1LjYgMS44IDcgMS4yLjcgMi43LjkgNCAuNWwxMS4xIDIyLjkgMS4yLS42LTYuMS0xMi41YTE2LjY5IDE2LjY5IDAgMCAwIDcuMi03LjJsMTIuNiA2LjEuNi0xLjItMTIuNS02LjFjLjgtMS45IDEuMi00LjEgMS4yLTYuM3ptLTE3LjYtLjljLjUtLjUgMS4zLS41IDEuOCAwcy41IDEuMyAwIDEuOC0xLjMuNS0xLjggMGMtLjQtLjUtLjQtMS4zIDAtMS44em03LjUgMTMuM2wtMy45LTguMWMuOC0uNCAxLjQtMS4xIDEuOC0xLjhsOC4xIDMuOWMtMS40IDIuNi0zLjUgNC43LTYgNnoiIGZpbGw9IiNmZmYiLz48L3N2Zz4=;fillColor=#ffffff;" vertex="1" parent="miscdiagram_31tWpe6jSX1_23dySDhhiNgU"><mxGeometry x="480" y="306" width="34" height="34" as="geometry"/></mxCell><mxCell id="miscdiagram_31tWpe6jSX1_83dySDhhFsPa" value="WfPS" style="aspect=fixed;perimeter=ellipsePerimeter;html=1;align=center;shadow=0;dashed=0;fontColor=#4277BB;labelBackgroundColor=none;fontSize=12;spacingTop=3;image;image=data:image/svg+xml,PHN2ZyB4bWxucz0iaHR0cDovL3d3dy53My5vcmcvMjAwMC9zdmciIHZpZXdCb3g9IjAgMCA1OS42IDU5LjYiPjxjaXJjbGUgY3g9IjI5LjgiIGN5PSIyOS44IiByPSIyOS44IiBmaWxsPSIjZWFiZTFkIi8+PHBhdGggZD0iTTM0LjggMTkuMWgtMi42YzAgMS44LS40IDMuNy0xLjEgNS40TDIzIDIwLjZjLjgtMi43LS43LTUuNi0zLjUtNi40YTUuMDYgNS4wNiAwIDAgMC00IC41bC0xLjktMS45LTEuOCAxLjggMS45IDEuOWMtMS40IDIuNC0uNiA1LjYgMS44IDcgMS4yLjcgMi43LjkgNCAuNWwxMS4xIDIyLjkgMS4yLS42LTYuMS0xMi41YTE2LjY5IDE2LjY5IDAgMCAwIDcuMi03LjJsMTIuNiA2LjEuNi0xLjItMTIuNS02LjFjLjgtMS45IDEuMi00LjEgMS4yLTYuM3ptLTE3LjYtLjljLjUtLjUgMS4zLS41IDEuOCAwcy41IDEuMyAwIDEuOC0xLjMuNS0xLjggMGMtLjQtLjUtLjQtMS4zIDAtMS44em03LjUgMTMuM2wtMy45LTguMWMuOC0uNCAxLjQtMS4xIDEuOC0xLjhsOC4xIDMuOWMtMS40IDIuNi0zLjUgNC43LTYgNnoiIGZpbGw9IiNmZmYiLz48L3N2Zz4=;fillColor=#ffffff;" vertex="1" parent="miscdiagram_31tWpe6jSX1_23dySDhhiNgU"><mxGeometry x="410" y="306" width="34" height="34" as="geometry"/></mxCell><mxCell id="miscdiagram_31tWpe6jSX1_93dySDhh0WS3" value="BAW" style="aspect=fixed;perimeter=ellipsePerimeter;html=1;align=center;shadow=0;dashed=0;fontColor=#4277BB;labelBackgroundColor=none;fontSize=12;spacingTop=3;image;image=data:image/svg+xml,PHN2ZyB4bWxucz0iaHR0cDovL3d3dy53My5vcmcvMjAwMC9zdmciIHZpZXdCb3g9IjAgMCA1OS42IDU5LjYiPjxjaXJjbGUgY3g9IjI5LjgiIGN5PSIyOS44IiByPSIyOS44IiBmaWxsPSIjZWFiZTFkIi8+PHBhdGggZD0iTTM0LjggMTkuMWgtMi42YzAgMS44LS40IDMuNy0xLjEgNS40TDIzIDIwLjZjLjgtMi43LS43LTUuNi0zLjUtNi40YTUuMDYgNS4wNiAwIDAgMC00IC41bC0xLjktMS45LTEuOCAxLjggMS45IDEuOWMtMS40IDIuNC0uNiA1LjYgMS44IDcgMS4yLjcgMi43LjkgNCAuNWwxMS4xIDIyLjkgMS4yLS42LTYuMS0xMi41YTE2LjY5IDE2LjY5IDAgMCAwIDcuMi03LjJsMTIuNiA2LjEuNi0xLjItMTIuNS02LjFjLjgtMS45IDEuMi00LjEgMS4yLTYuM3ptLTE3LjYtLjljLjUtLjUgMS4zLS41IDEuOCAwcy41IDEuMyAwIDEuOC0xLjMuNS0xLjggMGMtLjQtLjUtLjQtMS4zIDAtMS44em03LjUgMTMuM2wtMy45LTguMWMuOC0uNCAxLjQtMS4xIDEuOC0xLjhsOC4xIDMuOWMtMS40IDIuNi0zLjUgNC43LTYgNnoiIGZpbGw9IiNmZmYiLz48L3N2Zz4=;fillColor=#ffffff;" vertex="1" parent="miscdiagram_31tWpe6jSX1_23dySDhhiNgU"><mxGeometry x="350" y="306" width="34" height="34" as="geometry"/></mxCell><mxCell id="miscdiagram_31tWpe6jSX1_103dySDhh1RIa" value="ODM" style="aspect=fixed;perimeter=ellipsePerimeter;html=1;align=center;shadow=0;dashed=0;fontColor=#4277BB;labelBackgroundColor=#ffffff;fontSize=12;spacingTop=3;image;image=data:image/svg+xml,PHN2ZyB4bWxucz0iaHR0cDovL3d3dy53My5vcmcvMjAwMC9zdmciIHZpZXdCb3g9IjAgMCA1OS42IDU5LjYiPjxjaXJjbGUgY3g9IjI5LjgiIGN5PSIyOS44IiByPSIyOS44IiBmaWxsPSIjZWFiZTFkIi8+PHBhdGggZD0iTTM0LjggMTkuMWgtMi42YzAgMS44LS40IDMuNy0xLjEgNS40TDIzIDIwLjZjLjgtMi43LS43LTUuNi0zLjUtNi40YTUuMDYgNS4wNiAwIDAgMC00IC41bC0xLjktMS45LTEuOCAxLjggMS45IDEuOWMtMS40IDIuNC0uNiA1LjYgMS44IDcgMS4yLjcgMi43LjkgNCAuNWwxMS4xIDIyLjkgMS4yLS42LTYuMS0xMi41YTE2LjY5IDE2LjY5IDAgMCAwIDcuMi03LjJsMTIuNiA2LjEuNi0xLjItMTIuNS02LjFjLjgtMS45IDEuMi00LjEgMS4yLTYuM3ptLTE3LjYtLjljLjUtLjUgMS4zLS41IDEuOCAwcy41IDEuMyAwIDEuOC0xLjMuNS0xLjggMGMtLjQtLjUtLjQtMS4zIDAtMS44em03LjUgMTMuM2wtMy45LTguMWMuOC0uNCAxLjQtMS4xIDEuOC0xLjhsOC4xIDMuOWMtMS40IDIuNi0zLjUgNC43LTYgNnoiIGZpbGw9IiNmZmYiLz48L3N2Zz4=;fillColor=#ffffff;" vertex="1" parent="miscdiagram_31tWpe6jSX1_23dySDhhiNgU"><mxGeometry x="800" y="306" width="34" height="34" as="geometry"/></mxCell><mxCell id="miscdiagram_31tWpe6jSX1_113dySDhhBNlO" value="WfPS" style="aspect=fixed;perimeter=ellipsePerimeter;html=1;align=center;shadow=0;dashed=0;fontColor=#4277BB;labelBackgroundColor=none;fontSize=12;spacingTop=3;image;image=data:image/svg+xml,PHN2ZyB4bWxucz0iaHR0cDovL3d3dy53My5vcmcvMjAwMC9zdmciIHZpZXdCb3g9IjAgMCA1OS42IDU5LjYiPjxjaXJjbGUgY3g9IjI5LjgiIGN5PSIyOS44IiByPSIyOS44IiBmaWxsPSIjZWFiZTFkIi8+PHBhdGggZD0iTTM0LjggMTkuMWgtMi42YzAgMS44LS40IDMuNy0xLjEgNS40TDIzIDIwLjZjLjgtMi43LS43LTUuNi0zLjUtNi40YTUuMDYgNS4wNiAwIDAgMC00IC41bC0xLjktMS45LTEuOCAxLjggMS45IDEuOWMtMS40IDIuNC0uNiA1LjYgMS44IDcgMS4yLjcgMi43LjkgNCAuNWwxMS4xIDIyLjkgMS4yLS42LTYuMS0xMi41YTE2LjY5IDE2LjY5IDAgMCAwIDcuMi03LjJsMTIuNiA2LjEuNi0xLjItMTIuNS02LjFjLjgtMS45IDEuMi00LjEgMS4yLTYuM3ptLTE3LjYtLjljLjUtLjUgMS4zLS41IDEuOCAwcy41IDEuMyAwIDEuOC0xLjMuNS0xLjggMGMtLjQtLjUtLjQtMS4zIDAtMS44em03LjUgMTMuM2wtMy45LTguMWMuOC0uNCAxLjQtMS4xIDEuOC0xLjhsOC4xIDMuOWMtMS40IDIuNi0zLjUgNC43LTYgNnoiIGZpbGw9IiNmZmYiLz48L3N2Zz4=;fillColor=#ffffff;" vertex="1" parent="miscdiagram_31tWpe6jSX1_23dySDhhiNgU"><mxGeometry x="730" y="306" width="34" height="34" as="geometry"/></mxCell><mxCell id="miscdiagram_31tWpe6jSX1_123dySDhhmqwd" value="BAW" style="aspect=fixed;perimeter=ellipsePerimeter;html=1;align=center;shadow=0;dashed=0;fontColor=#4277BB;labelBackgroundColor=none;fontSize=12;spacingTop=3;image;image=data:image/svg+xml,PHN2ZyB4bWxucz0iaHR0cDovL3d3dy53My5vcmcvMjAwMC9zdmciIHZpZXdCb3g9IjAgMCA1OS42IDU5LjYiPjxjaXJjbGUgY3g9IjI5LjgiIGN5PSIyOS44IiByPSIyOS44IiBmaWxsPSIjZWFiZTFkIi8+PHBhdGggZD0iTTM0LjggMTkuMWgtMi42YzAgMS44LS40IDMuNy0xLjEgNS40TDIzIDIwLjZjLjgtMi43LS43LTUuNi0zLjUtNi40YTUuMDYgNS4wNiAwIDAgMC00IC41bC0xLjktMS45LTEuOCAxLjggMS45IDEuOWMtMS40IDIuNC0uNiA1LjYgMS44IDcgMS4yLjcgMi43LjkgNCAuNWwxMS4xIDIyLjkgMS4yLS42LTYuMS0xMi41YTE2LjY5IDE2LjY5IDAgMCAwIDcuMi03LjJsMTIuNiA2LjEuNi0xLjItMTIuNS02LjFjLjgtMS45IDEuMi00LjEgMS4yLTYuM3ptLTE3LjYtLjljLjUtLjUgMS4zLS41IDEuOCAwcy41IDEuMyAwIDEuOC0xLjMuNS0xLjggMGMtLjQtLjUtLjQtMS4zIDAtMS44em03LjUgMTMuM2wtMy45LTguMWMuOC0uNCAxLjQtMS4xIDEuOC0xLjhsOC4xIDMuOWMtMS40IDIuNi0zLjUgNC43LTYgNnoiIGZpbGw9IiNmZmYiLz48L3N2Zz4=;fillColor=#ffffff;" vertex="1" parent="miscdiagram_31tWpe6jSX1_23dySDhhiNgU"><mxGeometry x="670" y="306" width="34" height="34" as="geometry"/></mxCell><mxCell id="miscdiagram_31tWpe6jSX1_133dySDhhSVAo" value="Enterprise Intranet" style="rounded=0;whiteSpace=wrap;html=1;align=left;verticalAlign=bottom;" vertex="1" parent="1"><mxGeometry x="60" y="80" width="880" height="110" as="geometry"/></mxCell><mxCell id="miscdiagram_31tWpe6jSX1_143dySDhhRXAd" value="OCP Master Node" style="whiteSpace=wrap;html=1;aspect=fixed;align=center;verticalAlign=top;" vertex="1" parent="1"><mxGeometry x="460" y="430" width="54" height="54" as="geometry"/></mxCell><mxCell id="miscdiagram_31tWpe6jSX1_153dySDhhj8wY" value="OCP Worker Node" style="whiteSpace=wrap;html=1;aspect=fixed;align=center;verticalAlign=top;" vertex="1" parent="1"><mxGeometry x="531" y="560" width="54" height="54" as="geometry"/></mxCell><mxCell id="miscdiagram_31tWpe6jSX1_163dySDhhvbo7" value="OCP Worker Node" style="whiteSpace=wrap;html=1;aspect=fixed;align=center;verticalAlign=top;" vertex="1" parent="1"><mxGeometry x="461" y="560" width="54" height="54" as="geometry"/></mxCell><mxCell id="miscdiagram_31tWpe6jSX1_173dySDhhjFs8" value="OCP Worker Node" style="whiteSpace=wrap;html=1;aspect=fixed;align=center;verticalAlign=top;" vertex="1" parent="1"><mxGeometry x="397" y="560" width="54" height="54" as="geometry"/></mxCell><mxCell id="miscdiagram_31tWpe6jSX1_183dySDhhTu0E" value="OCP Worker Node" style="whiteSpace=wrap;html=1;aspect=fixed;align=center;verticalAlign=top;" vertex="1" parent="1"><mxGeometry x="854" y="560" width="54" height="54" as="geometry"/></mxCell><mxCell id="miscdiagram_31tWpe6jSX1_193dySDhh4z2g" value="OCP Worker Node" style="whiteSpace=wrap;html=1;aspect=fixed;align=center;verticalAlign=top;" vertex="1" parent="1"><mxGeometry x="784" y="560" width="54" height="54" as="geometry"/></mxCell><mxCell id="miscdiagram_31tWpe6jSX1_203dySDhhESvy" value="OCP Worker Node" style="whiteSpace=wrap;html=1;aspect=fixed;align=center;verticalAlign=top;" vertex="1" parent="1"><mxGeometry x="720" y="560" width="54" height="54" as="geometry"/></mxCell><mxCell id="miscdiagram_31tWpe6jSX1_213dySDhh7HIa" value="OCP Control Plane Load Balancers" style="aspect=fixed;perimeter=ellipsePerimeter;html=1;align=center;shadow=0;dashed=0;fontColor=#4277BB;labelBackgroundColor=#ffffff;fontSize=12;spacingTop=3;image;image=data:image/svg+xml,PHN2ZyB4bWxucz0iaHR0cDovL3d3dy53My5vcmcvMjAwMC9zdmciIHdpZHRoPSIxMDAuMDMyIiBoZWlnaHQ9IjEwMC4wMzIiIHZpZXdCb3g9IjAgMCA3NSA3NSIgZmlsbD0ibm9uZSIgZmlsbC1ydWxlPSJldmVub2RkIiBvdmVyZmxvdz0idmlzaWJsZSIgc3Ryb2tlLWxpbmVjYXA9InNxdWFyZSIgc3Ryb2tlLW1pdGVybGltaXQ9IjMiIGNvbG9yLWludGVycG9sYXRpb24tZmlsdGVycz0ic1JHQiI+PHN0eWxlPjwhW0NEQVRBWy5Ce2NvbG9yLWludGVycG9sYXRpb24tZmlsdGVyczpzUkdCfV1dPjwvc3R5bGU+PGNpcmNsZSByPSIzNy41IiBjeD0iMzcuNSIgY3k9IjM3LjUiIGZpbGw9IiM4ZGM1M2YiIGNsYXNzPSJCIi8+PHBhdGggZD0iTTUzLjE4NiA1My41NjJoOS4xMDd2Ny41MTZoLTkuMTA3em0tMjAuMjQgMGg5LjEwN3Y3LjUxNmgtOS4xMDd6bS0yMC4yNCAwaDkuMTA3djcuNTE2aC05LjEwN3pNMjcuNDYyIDcuMDRoMjAuMDc2djguODdIMjcuNDYyem04LjE2MiAxMS40ODN2Ny40OWgtMjAuMDhWNDkuMDNoMy43NVYyOS43NjNoMTYuMzN2MTkuMjUyaDMuNzVWMjkuNzYzaDE2LjMzVjQ5LjA0aDMuNzVWMjYuMDEzaC0yMC4wOHYtNy40OXoiIGZpbGw9IiNmZmYiIHBhaW50LW9yZGVyPSJub3JtYWwiIGNsYXNzPSJCIi8+PC9zdmc+;verticalAlign=top;" vertex="1" parent="1"><mxGeometry x="580" y="330" width="60" height="60" as="geometry"/></mxCell><mxCell id="miscdiagram_31tWpe6jSX1_223dySDhhaeQU" value="" style="html=1;labelBackgroundColor=#ffffff;endArrow=classic;endFill=1;endSize=6;jettySize=auto;orthogonalLoop=1;strokeWidth=1;fontSize=14;entryX=0.5;entryY=0;entryDx=0;entryDy=0;exitX=0;exitY=0.5;exitDx=0;exitDy=0;" edge="1" parent="1" source="miscdiagram_31tWpe6jSX1_213dySDhh7HIa" target="miscdiagram_31tWpe6jSX1_363dySDhhHQVI"><mxGeometry width="60" height="60" relative="1" as="geometry"><mxPoint x="500" y="550" as="sourcePoint"/><mxPoint x="560" y="490" as="targetPoint"/><Array as="points"><mxPoint x="157" y="360"/></Array></mxGeometry></mxCell><mxCell id="miscdiagram_31tWpe6jSX1_233dySDhhD6u4" value="" style="html=1;labelBackgroundColor=#ffffff;endArrow=classic;endFill=1;endSize=6;jettySize=auto;orthogonalLoop=1;strokeWidth=1;fontSize=14;entryX=0.5;entryY=0;entryDx=0;entryDy=0;" edge="1" parent="1" target="miscdiagram_31tWpe6jSX1_143dySDhhRXAd"><mxGeometry width="60" height="60" relative="1" as="geometry"><mxPoint x="580" y="360" as="sourcePoint"/><mxPoint x="570" y="490" as="targetPoint"/><Array as="points"><mxPoint x="487" y="360"/></Array></mxGeometry></mxCell><mxCell id="miscdiagram_31tWpe6jSX1_243dySDhhVJop" value="" style="html=1;labelBackgroundColor=#ffffff;endArrow=classic;endFill=1;endSize=6;jettySize=auto;orthogonalLoop=1;strokeWidth=1;fontSize=14;entryX=0.5;entryY=0;entryDx=0;entryDy=0;exitX=1;exitY=0.5;exitDx=0;exitDy=0;" edge="1" parent="1" source="miscdiagram_31tWpe6jSX1_213dySDhh7HIa" target="miscdiagram_31tWpe6jSX1_373dySDhhTkdg"><mxGeometry width="60" height="60" relative="1" as="geometry"><mxPoint x="510" y="550" as="sourcePoint"/><mxPoint x="570" y="490" as="targetPoint"/><Array as="points"><mxPoint x="807" y="360"/></Array></mxGeometry></mxCell><mxCell id="miscdiagram_31tWpe6jSX1_253dySDhhG6L4" value="Enterprise Load Balancers" style="aspect=fixed;perimeter=ellipsePerimeter;html=1;align=center;shadow=0;dashed=0;fontColor=#4277BB;labelBackgroundColor=#ffffff;fontSize=12;spacingTop=3;image;image=data:image/svg+xml,PHN2ZyB4bWxucz0iaHR0cDovL3d3dy53My5vcmcvMjAwMC9zdmciIHdpZHRoPSIxMDAuMDMyIiBoZWlnaHQ9IjEwMC4wMzIiIHZpZXdCb3g9IjAgMCA3NSA3NSIgZmlsbD0ibm9uZSIgZmlsbC1ydWxlPSJldmVub2RkIiBvdmVyZmxvdz0idmlzaWJsZSIgc3Ryb2tlLWxpbmVjYXA9InNxdWFyZSIgc3Ryb2tlLW1pdGVybGltaXQ9IjMiIGNvbG9yLWludGVycG9sYXRpb24tZmlsdGVycz0ic1JHQiI+PHN0eWxlPjwhW0NEQVRBWy5Ce2NvbG9yLWludGVycG9sYXRpb24tZmlsdGVyczpzUkdCfV1dPjwvc3R5bGU+PGNpcmNsZSByPSIzNy41IiBjeD0iMzcuNSIgY3k9IjM3LjUiIGZpbGw9IiM4ZGM1M2YiIGNsYXNzPSJCIi8+PHBhdGggZD0iTTUzLjE4NiA1My41NjJoOS4xMDd2Ny41MTZoLTkuMTA3em0tMjAuMjQgMGg5LjEwN3Y3LjUxNmgtOS4xMDd6bS0yMC4yNCAwaDkuMTA3djcuNTE2aC05LjEwN3pNMjcuNDYyIDcuMDRoMjAuMDc2djguODdIMjcuNDYyem04LjE2MiAxMS40ODN2Ny40OWgtMjAuMDhWNDkuMDNoMy43NVYyOS43NjNoMTYuMzN2MTkuMjUyaDMuNzVWMjkuNzYzaDE2LjMzVjQ5LjA0aDMuNzVWMjYuMDEzaC0yMC4wOHYtNy40OXoiIGZpbGw9IiNmZmYiIHBhaW50LW9yZGVyPSJub3JtYWwiIGNsYXNzPSJCIi8+PC9zdmc+;verticalAlign=top;" vertex="1" parent="1"><mxGeometry x="380" y="100" width="60" height="60" as="geometry"/></mxCell><mxCell id="miscdiagram_31tWpe6jSX1_263dySDhh9yRg" value="" style="html=1;labelBackgroundColor=#ffffff;endArrow=classic;endFill=1;endSize=6;jettySize=auto;orthogonalLoop=1;strokeWidth=1;fontSize=14;exitX=0;exitY=0.5;exitDx=0;exitDy=0;" edge="1" parent="1" source="miscdiagram_31tWpe6jSX1_253dySDhhG6L4"><mxGeometry width="60" height="60" relative="1" as="geometry"><mxPoint x="380" y="130" as="sourcePoint"/><mxPoint x="237" y="560" as="targetPoint"/><Array as="points"><mxPoint x="240" y="130"/></Array></mxGeometry></mxCell><mxCell id="miscdiagram_31tWpe6jSX1_273dySDhhWHZU" value="" style="html=1;labelBackgroundColor=#ffffff;startArrow=classic;startFill=1;startSize=6;endArrow=classic;endFill=1;endSize=6;jettySize=auto;orthogonalLoop=1;strokeWidth=1;fontSize=14;exitX=0.426;exitY=0;exitDx=0;exitDy=0;entryX=0.5;entryY=0;entryDx=0;entryDy=0;exitPerimeter=0;" edge="1" parent="1" source="miscdiagram_31tWpe6jSX1_173dySDhhjFs8" target="miscdiagram_31tWpe6jSX1_163dySDhhvbo7"><mxGeometry width="60" height="60" relative="1" as="geometry"><mxPoint x="153" y="610" as="sourcePoint"/><mxPoint x="217" y="610" as="targetPoint"/><Array as="points"><mxPoint x="420" y="530"/><mxPoint x="488" y="530"/></Array></mxGeometry></mxCell><mxCell id="miscdiagram_31tWpe6jSX1_283dySDhhbtnt" value="" style="html=1;labelBackgroundColor=#ffffff;startArrow=classic;startFill=1;startSize=6;endArrow=classic;endFill=1;endSize=6;jettySize=auto;orthogonalLoop=1;strokeWidth=1;fontSize=14;exitX=0.5;exitY=0;exitDx=0;exitDy=0;entryX=0.5;entryY=0;entryDx=0;entryDy=0;" edge="1" parent="1" source="miscdiagram_31tWpe6jSX1_203dySDhhESvy" target="miscdiagram_31tWpe6jSX1_193dySDhh4z2g"><mxGeometry width="60" height="60" relative="1" as="geometry"><mxPoint x="430.0039999999999" y="570" as="sourcePoint"/><mxPoint x="498" y="570" as="targetPoint"/><Array as="points"><mxPoint x="747" y="530"/><mxPoint x="811" y="530"/></Array></mxGeometry></mxCell><mxCell id="miscdiagram_31tWpe6jSX1_293dySDhhJGLG" value="" style="html=1;labelBackgroundColor=#ffffff;startArrow=classic;startFill=1;startSize=6;endArrow=classic;endFill=1;endSize=6;jettySize=auto;orthogonalLoop=1;strokeWidth=1;fontSize=14;exitX=0.5;exitY=0;exitDx=0;exitDy=0;entryX=0.5;entryY=0;entryDx=0;entryDy=0;" edge="1" parent="1" source="miscdiagram_31tWpe6jSX1_163dySDhhvbo7" target="miscdiagram_31tWpe6jSX1_153dySDhhj8wY"><mxGeometry width="60" height="60" relative="1" as="geometry"><mxPoint x="430.0039999999999" y="570" as="sourcePoint"/><mxPoint x="498" y="570" as="targetPoint"/><Array as="points"><mxPoint x="488" y="530"/><mxPoint x="558" y="530"/></Array></mxGeometry></mxCell><mxCell id="miscdiagram_31tWpe6jSX1_303dySDhho505" value="" style="html=1;labelBackgroundColor=#ffffff;startArrow=classic;startFill=1;startSize=6;endArrow=classic;endFill=1;endSize=6;jettySize=auto;orthogonalLoop=1;strokeWidth=1;fontSize=14;exitX=0.5;exitY=0;exitDx=0;exitDy=0;entryX=0.5;entryY=0;entryDx=0;entryDy=0;" edge="1" parent="1" source="miscdiagram_31tWpe6jSX1_403dySDhhplVG" target="miscdiagram_31tWpe6jSX1_183dySDhhTu0E"><mxGeometry width="60" height="60" relative="1" as="geometry"><mxPoint x="430.0039999999999" y="570" as="sourcePoint"/><mxPoint x="498" y="570" as="targetPoint"/><Array as="points"><mxPoint x="237" y="530"/><mxPoint x="880" y="530"/></Array></mxGeometry></mxCell><mxCell id="miscdiagram_31tWpe6jSX1_313dySDhhfauA" value="Internet Gateway" style="aspect=fixed;perimeter=ellipsePerimeter;html=1;align=center;shadow=0;dashed=0;fontColor=#4277BB;labelBackgroundColor=#ffffff;fontSize=12;spacingTop=3;image;image=data:image/svg+xml,PHN2ZyB4bWxucz0iaHR0cDovL3d3dy53My5vcmcvMjAwMC9zdmciIHdpZHRoPSI5My4zMTIiIGhlaWdodD0iOTEuOTY4IiB2aWV3Qm94PSIwIDAgNjkuOTcxIDY4Ljk5NSIgZmlsbD0iIzAwNDU5ZCIgZmlsbC1ydWxlPSJub256ZXJvIiBvdmVyZmxvdz0idmlzaWJsZSIgc3Ryb2tlLWxpbmVjYXA9InNxdWFyZSIgc3Ryb2tlLW1pdGVybGltaXQ9IjMiIGNvbG9yLWludGVycG9sYXRpb24tZmlsdGVycz0ic1JHQiI+PHBhdGggZD0iTTM3LjU2NSA2MS4zMzJ2NC40MzhjLjc0Ni0uMjIyIDEuNC0uNjMyIDEuOTg1LTEuMjIyczEuMDk4LTEuMzYgMS41NTctMi4zbC40MDItLjkxNnptLTYuNjU4IDBoMy45NDR2NC40MzhjLS43NDYtLjIyMi0xLjQwMy0uNjMyLTEuOTg3LTEuMjIycy0xLjA5Ni0xLjM2LTEuNTU1LTIuM2wtLjQwMi0uOTE2em02LjY1OC03LjI3MnY0LjU1NEg0Mi4zYTI0LjcxIDI0LjcxIDAgMCAwIC41MjItNC41NTR6bS03Ljk3MiAwaDUuMjU4djQuNTU0aC00LjczNmEyNC43MSAyNC43MSAwIDAgMS0uNTIyLTQuNTU0em03Ljk3Mi03LjI3djQuNTU0aDUuMTgzYy0uMTIyLTEuNTgzLS4zNzUtMy4xMzUtLjc1NS00LjU1NHptLTcuMTQgMGg0LjQyOHY0LjU1NEgyOS42N2MuMTIyLTEuNTgzLjM3NS0zLjEzNS43NTUtNC41NTR6bTcuMTQtNi42Nzd2My45NjVoMy40NjVsLS4xODYtLjQxNGMtLjQ1NS0uOTE3LS45NTQtMS42NzYtMS41LTIuMjdzLTEuMTM3LTEuMDI1LTEuNzgtMS4yOHptLTIuNzE1IDB2My45NjVoLTMuNDY1bC4xODYtLjQxNGMuNDU1LS45MTcuOTU0LTEuNjc2IDEuNS0yLjI3czEuMTM3LTEuMDI1IDEuNzgtMS4yOHoiIGRvbWluYW50LWJhc2VsaW5lPSJhdXRvIiBwYWludC1vcmRlcj0ibm9ybWFsIi8+PHBhdGggZD0iTTM3LjU2NSA2MS4zMzJoMy45NDRsLS40MDIuOTE2Yy0uNDYuOTQtLjk3MiAxLjctMS41NTcgMi4zcy0xLjI0IDEtMS45ODUgMS4yMjJ6bS02LjY1OCAwbC40MDIuOTE2Yy40Ni45NC45NyAxLjcgMS41NTUgMi4zczEuMjQyIDEgMS45ODcgMS4yMjJ2LTQuNDM4em02LjY1OC03LjI3Mmg1LjI1OGEyNC43MSAyNC43MSAwIDAgMS0uNTIyIDQuNTU0aC00LjczNnptLTcuOTcyIDBhMjQuNzEgMjQuNzEgMCAwIDAgLjUyMiA0LjU1NGg0LjczNlY1NC4wNnptNy45NzItNy4yN2g0LjQyOGMuMzggMS40Mi42MzMgMi45NzIuNzU1IDQuNTU0aC01LjE4M3ptLTcuMTQgMGMtLjM4IDEuNDItLjYzMyAyLjk3Mi0uNzU1IDQuNTU0aDUuMTgzVjQ2Ljh6bTcuMTQtNi42NzdjLjY0Mi4yNTQgMS4yMzQuNjg0IDEuNzggMS4yOHMxLjA0NSAxLjM1NCAxLjUgMi4yN2wuMTg2LjQxNGgtMy40NjV6bS0yLjcxNSAwYy0uNjQyLjI1NC0xLjIzNC42ODQtMS43OCAxLjI4cy0xLjA0NSAxLjM1NC0xLjUgMi4yN2wtLjE4Ni40MTRoMy40NjV6bS40NjUtMzYuMTE3YzIuNzYuMDg4IDUuNTQ2Ljk4MiA3Ljk0IDIuODc1bC4wMTYuMDEuMDE2LjAxNGM0LjU1NCAzLjQ0MiA3LjMxNCA1Ljg4MyA3LjQ0OCAxNC4yMTJsLjAzIDEuODEyIDEuODA4LjEzN0M1OC42OCAyMy41MSA2MyAyNi4yMjggNjUuNiAzNC40NmMuNjg4IDIuMzguNDIgNS40OC0uNTYzIDguMzE1LS45OCAyLjgyNS0yLjY4IDUuMzQtNC4zMzQgNi42MjgtNC43NyAzLjI3LTYuMSAzLjQ5Ny04LjU1NiAzLjQ5My0uMDItOC44NC03LjIxOC0xNi4wMjgtMTYuMDYzLTE2LjAyOC03Ljc2NyAwLTE0LjI2MyA1LjU0My0xNS43NDQgMTIuODhsLTQuNDU0LS4wODJjLTIuNjg0IDAtNS42MjQtMS44NjMtNy45Mi00LjY0NC0yLjI4NC0yLjc2NS0zLjgwMi02LjM1NS0zLjk4LTguODcyLjAxNi00LjgyOCAxLjIxNi03LjkwNCAyLjg2NS0xMC4xMTNzMy44My0zLjYwNyA2LjAwNS00Ljc0NGMyLjk5My0xLjQ3MiA5LjA2LTEuNTA1IDExLjg1LjA3MyA0LjAyNyAyLjUzMyA1Ljg1NCA0Ljg2NyA3LjcwNyA4LjAybDMuNDIyLTJjLTIuMDI1LTMuNDQ1LTQuNDg2LTYuNTM3LTkuMDYtOS40MDNsLS4wMzMtLjAyMi0uMDM1LS4wMThjLTIuMS0xLjIwOC00LjY2LTEuNzYtNy4yMzItMS44NDUgMS4xODUtMy45NzUgMy42NDMtNi41ODggNi4yMTMtOC44NjIgMi41NzQtMi4xMyA2LjA4LTMuMzQ0IDkuNjMtMy4yM3pNMzUuNTMuMDEzYTE4LjIzIDE4LjIzIDAgMCAwLTEuNTEuMDA2Yy00LjAxOC4xODUtNy45IDEuNjg1LTEwLjg4NSA0LjE2bC0uMDI0LjAyMi0uMDIyLjAxOGMtMi45NjUgMi42Mi02LjQ4IDYuMzc3LTcuNzYgMTIuMTc2LTEuNTEzLjI4Ni0yLjk2Ny43MDUtNC4yNDggMS4zNGwtLjAyLjAwOC0uMDE4LjAxYy0yLjM5NiAxLjI1LTUuMTk0IDIuOTgzLTcuMzc2IDUuOTA3UzAgMzAuNjYyIDAgMzYuMjN2LjA2NWwuMDA0LjA2NWMuMjQ0IDMuNzQgMi4xMTggNy44MjYgNC44OTYgMTEuMnM2LjU4NSA2LjA4MyAxMC45ODIgNi4wODNsNC4xNzcuMDc4Yy40MTIgOC40OTMgNy40MyAxNS4yODMgMTYuMDIyIDE1LjI4MyA3LjUgMCAxMy43OTgtNS4xNzQgMTUuNTYtMTIuMTM1IDMuMTEzLS4wNCA1Ljg0Ni0uNDI2IDExLjM3Ni00LjIyNGwuMDQzLS4wMzMuMDQ1LS4wMzNjMi41NC0xLjk1OCA0LjQ4Ny01LjA1MiA1LjY4My04LjQ5NXMxLjYzLTcuMjY1LjYyMi0xMC43MzVsLS4wMDQtLjAyMi0uMDA2LS4wMmMtMi43MTQtOC42MjgtOC4zMDQtMTIuODAyLTE0LjkwMi0xMy44NS0uNjA1LTguMTI1LTQuMzI2LTEyLjMyLTguOC0xNS43QzQyLjYyMyAxLjMxMiAzOS4wNi4xNDMgMzUuNTMuMDEyek0zMC4xNTIgNDAuOWMxLjgwOC0uODk0IDMuNzcyLTEuNTA0IDUuOTMtMS41MDQgMi40NCAwIDQuNjAzLjgxNiA2LjU3NyAxLjk0LjIzLjM3LjQ4NS43MTIuNjgyIDEuMTA4YTE3Ljk3IDE3Ljk3IDAgMCAxIC42OTQgMS42MjJoMi4xYy43MjIuODIgMS4zMiAxLjczNSAxLjgyOCAyLjcxNEg0NC44NmEyOC4wNCAyOC4wNCAwIDAgMSAuNjc5IDQuNTU0aDMuOTEyYy4wNjIuNTI2LjE2IDEuMDQyLjE2IDEuNTg1IDAgLjM4Ny0uMDguNzUtLjExMiAxLjEzaC0zLjg5M2EyNy42IDI3LjYgMCAwIDEtLjQ1MSA0LjU1NGgzLjExNmMtLjQ2OCAxLjAwMi0xLjE0IDEuODY2LTEuODI4IDIuNzE2SDQ0LjQ2YTE2Ljc0IDE2Ljc0IDAgMCAxLS44NDUgMi4xMWMtLjEzLjI2Ny0uMzE2LjUtLjQ2My43NDUtMi4wODYgMS4zMTMtNC40MTMgMi4yNy03LjA2NiAyLjI3LTIuMzcgMC00LjQ4LS43NjctNi40MTUtMS44MzItLjI1LS40LS41MjctLjc2LS43MzUtMS4xODMtLjMyNS0uNjY1LS42MDItMS4zNzQtLjg0NS0yLjFoLTIuMzYzYy0uNjg4LS44NS0xLjM1OC0xLjcxNC0xLjgyNi0yLjcxNmgzLjVjLS4yNzctMS40NjgtLjQyLTMuMDA0LS40NS00LjU1NGgtNC4yN2MtLjAzMi0uMzgtLjExMi0uNzQzLS4xMTItMS4xMyAwLS41NDMuMDk3LTEuMDYuMTYtMS41ODVoNC4yODdhMjcuODkgMjcuODkgMCAwIDEgLjY4Mi00LjU1NGgtMy40OGMuNTA3LS45OCAxLjEwNS0xLjg5NCAxLjgyNi0yLjcxNGgyLjQ4YTE3Ljg1IDE3Ljg1IDAgMCAxIC42OTQtMS42MjJjLjI3NC0uNTUyLjYxMi0xLjA1Ljk1LTEuNTQ1eiIgZG9taW5hbnQtYmFzZWxpbmU9ImF1dG8iIHBhaW50LW9yZGVyPSJub3JtYWwiLz48L3N2Zz4=;" vertex="1" parent="1"><mxGeometry x="838" y="50" width="60" height="60" as="geometry"/></mxCell><mxCell id="miscdiagram_31tWpe6jSX1_323dySDhhEtXi" value="Databases" style="shape=cylinder3;whiteSpace=wrap;html=1;boundedLbl=1;backgroundOutline=1;size=15;" vertex="1" parent="1"><mxGeometry x="1000" y="417" width="60" height="80" as="geometry"/></mxCell><mxCell id="miscdiagram_31tWpe6jSX1_333dySDhh0m6U" value="Storage" style="shape=cylinder3;whiteSpace=wrap;html=1;boundedLbl=1;backgroundOutline=1;size=15;" vertex="1" parent="1"><mxGeometry x="1000" y="600" width="60" height="80" as="geometry"/></mxCell><mxCell id="miscdiagram_31tWpe6jSX1_343dySDhhwgWL" value="" style="endArrow=classic;startArrow=classic;html=1;entryX=0;entryY=0.5;entryDx=0;entryDy=0;entryPerimeter=0;exitX=1;exitY=0.5;exitDx=0;exitDy=0;" edge="1" parent="1" source="miscdiagram_31tWpe6jSX1_23dySDhhiNgU" target="miscdiagram_31tWpe6jSX1_323dySDhhEtXi"><mxGeometry width="50" height="50" relative="1" as="geometry"><mxPoint x="540" y="520" as="sourcePoint"/><mxPoint x="590" y="470" as="targetPoint"/></mxGeometry></mxCell><mxCell id="miscdiagram_31tWpe6jSX1_353dySDhh5KgA" value="" style="endArrow=classic;startArrow=classic;html=1;entryX=0;entryY=0.5;entryDx=0;entryDy=0;entryPerimeter=0;" edge="1" parent="1" target="miscdiagram_31tWpe6jSX1_333dySDhh0m6U"><mxGeometry width="50" height="50" relative="1" as="geometry"><mxPoint x="930" y="560" as="sourcePoint"/><mxPoint x="590" y="470" as="targetPoint"/></mxGeometry></mxCell><mxCell id="miscdiagram_31tWpe6jSX1_363dySDhhHQVI" value="OCP Master Node" style="whiteSpace=wrap;html=1;aspect=fixed;align=center;verticalAlign=top;" vertex="1" parent="1"><mxGeometry x="130" y="430" width="54" height="54" as="geometry"/></mxCell><mxCell id="miscdiagram_31tWpe6jSX1_373dySDhhTkdg" value="OCP Master Node" style="whiteSpace=wrap;html=1;aspect=fixed;align=center;verticalAlign=top;" vertex="1" parent="1"><mxGeometry x="780" y="430" width="54" height="54" as="geometry"/></mxCell><mxCell id="miscdiagram_31tWpe6jSX1_383dySDhhx5Qf" value="OCP Worker Node" style="whiteSpace=wrap;html=1;aspect=fixed;align=center;verticalAlign=top;" vertex="1" parent="1"><mxGeometry x="76" y="560" width="54" height="54" as="geometry"/></mxCell><mxCell id="miscdiagram_31tWpe6jSX1_393dySDhhVJSz" value="OCP Worker Node" style="whiteSpace=wrap;html=1;aspect=fixed;align=center;verticalAlign=top;" vertex="1" parent="1"><mxGeometry x="140" y="560" width="54" height="54" as="geometry"/></mxCell><mxCell id="miscdiagram_31tWpe6jSX1_403dySDhhplVG" value="OCP Worker Node" style="whiteSpace=wrap;html=1;aspect=fixed;align=center;verticalAlign=top;" vertex="1" parent="1"><mxGeometry x="210" y="560" width="54" height="54" as="geometry"/></mxCell><mxCell id="miscdiagram_31tWpe6jSX1_413dySDhhJh4e" value="" style="html=1;labelBackgroundColor=#ffffff;startArrow=classic;startFill=1;startSize=6;endArrow=classic;endFill=1;endSize=6;jettySize=auto;orthogonalLoop=1;strokeWidth=1;fontSize=14;exitX=0.5;exitY=0;exitDx=0;exitDy=0;" edge="1" parent="1" source="miscdiagram_31tWpe6jSX1_383dySDhhx5Qf"><mxGeometry x="40" y="40" width="60" height="60" as="geometry"><mxPoint x="580" y="550" as="sourcePoint"/><mxPoint x="167" y="560" as="targetPoint"/><Array as="points"><mxPoint x="103" y="530"/><mxPoint x="140" y="530"/><mxPoint x="167" y="530"/></Array></mxGeometry></mxCell><mxCell id="miscdiagram_31tWpe6jSX1_423dySDhh0hnV" value="" style="html=1;labelBackgroundColor=#ffffff;startArrow=classic;startFill=1;startSize=6;endArrow=classic;endFill=1;endSize=6;jettySize=auto;orthogonalLoop=1;strokeWidth=1;fontSize=14;entryX=0.5;entryY=0;entryDx=0;entryDy=0;exitX=0.5;exitY=0;exitDx=0;exitDy=0;" edge="1" parent="1" source="miscdiagram_31tWpe6jSX1_393dySDhhVJSz" target="miscdiagram_31tWpe6jSX1_403dySDhhplVG"><mxGeometry x="40" y="40" width="60" height="60" as="geometry"><mxPoint x="170" y="560" as="sourcePoint"/><mxPoint x="240" y="560" as="targetPoint"/><Array as="points"><mxPoint x="167" y="530"/><mxPoint x="237" y="530"/></Array></mxGeometry></mxCell></root></mxGraphModel>